<svg width="80" height="80" viewBox="0 0 80 80" fill="none" xmlns="http://www.w3.org/2000/svg">
<g filter="url(#filter0_d)">
<circle cx="40" cy="40" r="32" fill="#FF4758"/>
</g>
<path d="M52.1047 41.5267C52.9478 41.5267 53.6313 40.8432 53.6313 40.0001C53.6313 39.1569 52.9478 38.4734 52.1047 38.4734L43.5266 38.4734C42.422 38.4734 41.5266 37.578 41.5266 36.4734L41.5266 27.8954C41.5266 27.0523 40.8431 26.3688 40 26.3688C39.1569 26.3688 38.4734 27.0523 38.4734 27.8954L38.4734 36.4734C38.4734 37.578 37.578 38.4734 36.4734 38.4734H27.8953C27.0522 38.4734 26.3687 39.1569 26.3687 40.0001C26.3687 40.8432 27.0522 41.5267 27.8953 41.5267L36.4734 41.5267C37.578 41.5267 38.4734 42.4221 38.4734 43.5267V52.1047C38.4734 52.9479 39.1569 53.6313 40 53.6314C40.8431 53.6313 41.5266 52.9479 41.5266 52.1047V43.5267C41.5266 42.4221 42.422 41.5267 43.5266 41.5267L52.1047 41.5267Z" fill="white"/>
<defs>
<filter id="filter0_d" x="0" y="0" width="80" height="80" filterUnits="userSpaceOnUse" color-interpolation-filters="sRGB">
<feFlood flood-opacity="0" result="BackgroundImageFix"/>
<feColorMatrix in="SourceAlpha" type="matrix" values="0 0 0 0 0 0 0 0 0 0 0 0 0 0 0 0 0 0 127 0"/>
<feOffset/>
<feGaussianBlur stdDeviation="4"/>
<feColorMatrix type="matrix" values="0 0 0 0 0.134333 0 0 0 0 0 0 0 0 0 0.516667 0 0 0 0.5 0"/>
<feBlend mode="normal" in2="BackgroundImageFix" result="effect1_dropShadow"/>
<feBlend mode="normal" in="SourceGraphic" in2="effect1_dropShadow" result="shape"/>
</filter>
</defs>
</svg>